<svg xmlns="http://www.w3.org/2000/svg" viewBox="0 0 900 600" role="img" aria-label="NG Reactive Utils illustration (dark)">
  <defs>
    <linearGradient id="bg" x1="0" y1="0" x2="1" y2="1">
      <stop offset="0" stop-color="#0B1020" />
      <stop offset="1" stop-color="#111827" />
    </linearGradient>
    <linearGradient id="accent" x1="0" y1="0" x2="1" y2="1">
      <stop offset="0" stop-color="#60A5FA" />
      <stop offset="1" stop-color="#A78BFA" />
    </linearGradient>
    <filter id="shadow" x="-20%" y="-20%" width="140%" height="140%">
      <feDropShadow dx="0" dy="12" stdDeviation="16" flood-opacity="0.35" />
    </filter>
    <filter id="soft" x="-20%" y="-20%" width="140%" height="140%">
      <feGaussianBlur stdDeviation="18" />
    </filter>
  </defs>

  <!-- Background -->
  <rect width="900" height="600" rx="40" fill="url(#bg)" />

  <!-- Soft blobs -->
  <g opacity="0.5" filter="url(#soft)">
    <circle cx="720" cy="160" r="110" fill="#1E3A8A" />
    <circle cx="650" cy="420" r="140" fill="#4C1D95" />
    <circle cx="300" cy="460" r="120" fill="#312E81" />
  </g>

  <!-- Node graph -->
  <g filter="url(#shadow)">
    <!-- Links -->
    <path d="M250 210 C 340 120, 460 120, 540 210" fill="none" stroke="#60A5FA" stroke-opacity="0.55" stroke-width="10" stroke-linecap="round" />
    <path d="M250 210 C 340 300, 460 300, 540 210" fill="none" stroke="#A78BFA" stroke-opacity="0.55" stroke-width="10" stroke-linecap="round" />
    <path d="M540 210 C 620 170, 690 190, 740 250" fill="none" stroke="#60A5FA" stroke-opacity="0.55" stroke-width="10" stroke-linecap="round" />
    <path d="M540 210 C 610 270, 650 320, 660 390" fill="none" stroke="#A78BFA" stroke-opacity="0.55" stroke-width="10" stroke-linecap="round" />
    <path d="M250 210 C 210 280, 210 360, 260 420" fill="none" stroke="#60A5FA" stroke-opacity="0.55" stroke-width="10" stroke-linecap="round" />

    <!-- Nodes -->
    <circle cx="250" cy="210" r="40" fill="#0B1020" stroke="#60A5FA" stroke-width="10" />
    <circle cx="540" cy="210" r="46" fill="#0B1020" stroke="url(#accent)" stroke-width="12" />
    <circle cx="740" cy="250" r="34" fill="#0B1020" stroke="#A78BFA" stroke-width="10" />
    <circle cx="660" cy="390" r="34" fill="#0B1020" stroke="#60A5FA" stroke-width="10" />
    <circle cx="260" cy="420" r="34" fill="#0B1020" stroke="#A78BFA" stroke-width="10" />
  </g>

  <!-- "Signals" label -->
  <g>
    <rect x="95" y="80" width="250" height="78" rx="18" fill="#0B1020" stroke="#1F2937" />
    <path d="M135 120 C 150 95, 180 95, 195 120 C 210 145, 240 145, 255 120 C 270 95, 300 95, 315 120" fill="none" stroke="url(#accent)" stroke-width="10" stroke-linecap="round" />
    <text x="115" y="110" font-family="ui-sans-serif, system-ui, -apple-system, Segoe UI, Roboto, Helvetica, Arial, Apple Color Emoji, Segoe UI Emoji" font-size="20" fill="#E5E7EB">Signal-first primitives</text>
  </g>

  <!-- "Composables" label -->
  <g>
    <rect x="115" y="470" width="300" height="78" rx="18" fill="#0B1020" stroke="#1F2937" />
    <text x="135" y="520" font-family="ui-sans-serif, system-ui, -apple-system, Segoe UI, Roboto, Helvetica, Arial, Apple Color Emoji, Segoe UI Emoji" font-size="20" fill="#E5E7EB">Composable building blocks</text>
    <circle cx="380" cy="505" r="10" fill="#60A5FA" />
    <circle cx="410" cy="505" r="10" fill="#A78BFA" />
  </g>
</svg>
